<svg width="15" height="14" viewBox="0 0 15 14" fill="none" xmlns="http://www.w3.org/2000/svg">
<path d="M10.9786 8.50257L10.9786 8.50254L10.9741 8.50694C10.8229 8.65539 10.733 8.88478 10.7768 9.12372L11.4712 13.0941L7.82503 11.2146C7.82438 11.2143 7.82372 11.2139 7.82307 11.2136C7.61943 11.1078 7.38051 11.1078 7.17688 11.2136C7.17624 11.2139 7.1756 11.2143 7.17497 11.2146L3.52883 13.0941L4.22323 9.1238C4.26292 8.90715 4.19787 8.66605 4.01756 8.49894L1.08882 5.69621L5.14523 5.11822C5.36952 5.08954 5.5733 4.95397 5.6784 4.73872L7.50159 1.1136L9.32318 4.74185L9.33014 4.75571L9.33794 4.76911C9.43221 4.931 9.61021 5.08593 9.8535 5.11804L13.9112 5.69621L10.9786 8.50257Z" fill="white" stroke="#7A7A7A"/>
</svg>
